<svg width="48" height="45" viewBox="0 0 48 45" fill="none" xmlns="http://www.w3.org/2000/svg">
<g id="mail-2935365 1" clip-path="url(#clip0_7_7)">
<g id="Layer x0020 1">
<g id="2744492898368">
<path id="Vector" fill-rule="evenodd" clip-rule="evenodd" d="M0 0H48V45H0V0Z" fill="#C4C4C4"/>
<path id="Vector_2" d="M13.3334 14.6653H34.6667C34.9134 14.6653 35.1129 14.8524 35.1129 15.0787V29.9213C35.1129 30.1476 34.9134 30.3346 34.6667 30.3346H13.3334C13.0867 30.3346 12.8872 30.1476 12.8872 29.9213V15.0787C12.8872 14.8524 13.0867 14.6653 13.3334 14.6653ZM34.2205 15.497H13.7796V29.5029H34.2205V15.497Z" fill="#011627"/>
<path id="Vector_3" d="M13.0184 15.374C12.8452 15.2116 12.8452 14.9508 13.0184 14.7884C13.1916 14.626 13.4698 14.626 13.6483 14.7835L24.315 24.7835C24.4882 24.9459 24.4882 25.2067 24.315 25.3691C24.1418 25.5315 23.8635 25.5315 23.6851 25.374L13.0184 15.374Z" fill="#011627"/>
<path id="Vector_4" d="M34.3517 14.7835C34.5302 14.626 34.8084 14.626 34.9817 14.7884C35.1549 14.9508 35.1549 15.2116 34.9817 15.374L24.315 25.374C24.1418 25.5315 23.8583 25.5315 23.6851 25.3691C23.5118 25.2067 23.5118 24.9459 23.6903 24.7835L34.3517 14.7835Z" fill="#011627"/>
</g>
</g>
</g>
<defs>
<clipPath id="clip0_7_7">
<rect width="48" height="45" fill="white"/>
</clipPath>
</defs>
</svg>
