<svg width="24" height="24" viewBox="0 0 24 24" fill="none" xmlns="http://www.w3.org/2000/svg">
<path id="Vector (Stroke)" fill-rule="evenodd" clip-rule="evenodd" d="M12.6792 0.604296C12.3708 0.334607 11.9629 0.187287 11.5405 0.19565C11.118 0.204013 10.7172 0.367329 10.4211 0.648748L0.636699 9.95091L0.195312 10.3705V23.8047H9.23326V15.2483H14.7667V23.8047H23.8047V10.3352L12.6792 0.604296ZM24 10.2466V24H14.5714V15.4437H9.42857V24H0V10.2867L10.2866 0.507196C10.6189 0.19127 11.0668 0.00967736 11.5366 0.000375732C12.0065 -0.0089259 12.4619 0.154783 12.8078 0.457284L24 10.2466ZM1.71429 10.9618V22.3702H7.71429V15.4437C7.71429 15.0114 7.8949 14.5969 8.21639 14.2912C8.53788 13.9856 8.97392 13.8139 9.42857 13.8139H14.5714C15.0261 13.8139 15.4621 13.9856 15.7836 14.2912C16.1051 14.5969 16.2857 15.0114 16.2857 15.4437V22.3702H22.2857V10.9618L11.5747 1.65782C11.5747 1.65783 11.5748 1.65781 11.5747 1.65782C11.5745 1.6581 11.5743 1.65839 11.5742 1.65866C11.574 1.65897 11.5738 1.65928 11.5735 1.6596L1.71429 10.9618ZM11.377 1.57641L1.51897 10.8775V22.5655H7.9096V15.4437C7.9096 15.0665 8.06711 14.7027 8.35096 14.4328C8.63516 14.1626 9.02262 14.0092 9.42857 14.0092H14.5714C14.9774 14.0092 15.3648 14.1626 15.649 14.4328C15.9329 14.7027 16.0904 15.0665 16.0904 15.4437V22.5655H22.481V10.8727L11.7653 1.56463C11.7337 1.47573 11.6544 1.44911 11.643 1.4453C11.6352 1.44267 11.6276 1.44068 11.621 1.43926L11.556 1.38286L11.5003 1.44641C11.4781 1.45429 11.4288 1.47661 11.396 1.53287C11.3874 1.54765 11.3813 1.56224 11.377 1.57641ZM11.4034 1.55149L11.4311 1.5254L11.4483 1.50582L11.4401 1.4971C11.4369 1.50048 11.4334 1.50434 11.4299 1.50862C11.4269 1.51231 11.4142 1.52772 11.4034 1.55149ZM11.5651 1.6308C11.5638 1.63176 11.5659 1.63339 11.5688 1.63568C11.57 1.63666 11.5714 1.63776 11.5728 1.63898C11.5725 1.63918 11.573 1.63876 11.5728 1.63898C11.5742 1.6377 11.5764 1.63594 11.5778 1.63495C11.5809 1.63266 11.583 1.63112 11.5806 1.63036C11.5794 1.62999 11.5772 1.62981 11.5735 1.62981C11.5685 1.62981 11.566 1.63014 11.5651 1.6308ZM11.6952 1.50372L11.7373 1.54031C11.7363 1.53844 11.7354 1.53672 11.7345 1.53518C11.7231 1.51527 11.7102 1.50127 11.7035 1.49458L11.6952 1.50372ZM11.4046 1.56177C11.4052 1.56076 11.4062 1.55896 11.4077 1.55658L11.4046 1.56177Z" fill="white"/>
</svg>